<svg width="195" height="54" viewBox="0 0 195 54" fill="none" xmlns="http://www.w3.org/2000/svg">
<path d="M39.2368 45.4737V8.52631H47.7631V45.4737H39.2368Z" fill="#303030"/>
<path d="M103.184 45.4737V0H111.711V45.4737H103.184Z" fill="#303030"/>
<path d="M164.289 54L169.974 40.709L157.184 8.52631H165.711L174.237 32.0155L185.605 8.52631H194.132L172.816 54H164.289Z" fill="#303030"/>
<path d="M137.497 45.4737C134.045 45.4737 131.03 44.6921 128.452 43.1289C125.875 41.5184 123.85 39.3395 122.377 36.5921C120.95 33.7974 120.237 30.6 120.237 27C120.237 23.2579 120.95 20.0131 122.377 17.2658C123.85 14.5184 125.875 12.3868 128.452 10.871C131.076 9.30788 134.114 8.52631 137.566 8.52631C140.926 8.52631 143.848 9.2842 146.334 10.8C148.819 12.2684 150.775 14.3053 152.202 16.9105C153.629 19.5158 154.342 22.4763 154.342 25.7921C154.342 26.9459 154.306 28.1316 154.135 29.2737H128.107C128.245 31.121 128.706 32.7789 129.488 34.2474C130.27 35.6684 131.329 36.7816 132.664 37.5868C134.045 38.3921 135.61 38.7947 137.358 38.7947C139.246 38.7947 140.833 38.3684 142.122 37.5158C143.457 36.6632 144.369 35.7158 145.105 34.1053H153.321C152.677 36.2368 151.765 37.8947 150.338 39.6474C148.957 41.4 147.185 42.821 145.022 43.9105C142.905 44.9526 140.396 45.4737 137.497 45.4737ZM128.176 23.6605H146.334C146.288 21.0553 145.39 18.9947 143.641 17.4789C141.892 15.9631 139.798 15.2053 137.358 15.2053C135.149 15.2053 133.147 15.8921 131.352 17.2658C129.603 18.6395 128.545 20.771 128.176 23.6605Z" fill="#303030"/>
<path d="M59.1316 45.4737L59.1316 8.52641L67.6579 8.57897V14.255C68.8569 12.3815 70.0421 11.0528 72.1523 10.0921C74.2625 9.08326 76.4686 8.57886 78.7706 8.57886C82.943 8.57886 86.324 9.89991 88.9138 12.542C91.5035 15.1841 93.2369 19.0752 93.2369 24.2152V45.4737H84.7105V25.224C84.7105 22.1976 84.022 19.8198 82.5833 18.0904C81.1445 16.361 79.0343 15.4963 76.2528 15.4963C73.4712 15.4963 71.2651 16.4331 69.6345 18.3066C68.0519 20.132 67.6579 22.2436 67.6579 26.343V41.3743V45.4737H59.1316Z" fill="#303030"/>
<path d="M0.868408 0V14.2105H9.39472L29.2895 8.52632V0H0.868408Z" fill="#FA2524"/>
<path d="M0.868408 45.4737V22.7368H9.11268H29.2895V31.2632H9.39472V45.4737H0.868408Z" fill="#303030"/>
</svg>
